#
# ../viewer/obj/vm/vm.gateway.obj
#

mtllib virtual.museum.mtl

# cube bas gauche

v 20 0 -20
v 20 0 -19.5
v 20 7 -20
v 20 7 -19.5
v 25 0 -20
v 25 0 -19.5
v 25 7 -20
v 25 7 -19.5

# cube haut

v 20 7 -20
v 20 7 -19.5
v 20 10 -20
v 20 10 -19.5
v 40 7 -20
v 40 7 -19.5
v 40 10 -20
v 40 10 -19.5

# cube bas droite

v 30 0 -20
v 30 0 -19.5
v 30 7 -20
v 30 7 -19.5
v 40 0 -20
v 40 0 -19.5
v 40 7 -20
v 40 7 -19.5

vt 0.0 0.0
vt 1.0 0.0
vt 0.0 1.0
vt 1.0 1.0

vn  0.0  0.0  1.0
vn  0.0  0.0 -1.0
vn  0.0  1.0  0.0
vn  0.0 -1.0  0.0
vn  1.0  0.0  0.0
vn -1.0  0.0  0.0

usemtl wall

# cube bas gauche

f  1/2/2  7/3/2  5/1/2
f  1/2/2  3/4/2  7/3/2
f  1/1/6  4/4/6  3/3/6
f  1/1/6  2/2/6  4/4/6
f  3/3/3  8/2/3  7/4/3
f  3/3/3  4/1/3  8/2/3
f  5/2/5  7/4/5  8/3/5
f  5/2/5  8/3/5  6/1/5
f  1/3/4  5/4/4  6/2/4
f  1/3/4  6/2/4  2/1/4
f  2/1/1  6/2/1  8/4/1
f  2/1/1  8/4/1  4/3/1

# cube haut

f  9/2/2  15/3/2  13/1/2
f  9/2/2  11/4/2  15/3/2
f  9/1/6  12/4/6  11/3/6
f  9/1/6  10/2/6  12/4/6
f  11/3/3  16/2/3  15/4/3
f  11/3/3  12/1/3  16/2/3
f  13/2/5  15/4/5  16/3/5
f  13/2/5  16/3/5  14/1/5
f  9/3/4  13/4/4  14/2/4
f  9/3/4  14/2/4  10/1/4
f  10/1/1  14/2/1  16/4/1
f  10/1/1  16/4/1  12/3/1

# cube bas droite

f  17/2/2  23/3/2  21/1/2
f  17/2/2  19/4/2  23/3/2
f  17/1/6  20/4/6  19/3/6
f  17/1/6  18/2/6  20/4/6
f  19/3/3  24/2/3  23/4/3
f  19/3/3  20/1/3  24/2/3
f  21/2/5  23/4/5  24/3/5
f  21/2/5  24/3/5  22/1/5
f  17/3/4  21/4/4  22/2/4
f  17/3/4  22/2/4  18/1/4
f  18/1/1  22/2/1  24/4/1
f  18/1/1  24/4/1  20/3/1
